<?xml version="1.0" encoding="UTF-8"?>
<!DOCTYPE svg  PUBLIC '-//W3C//DTD SVG 1.1//EN'  'http://www.w3.org/Graphics/SVG/1.1/DTD/svg11.dtd'>
<svg enable-background="new 148.2405 409.1884 1898.8005 1659.1594" version="1.1" viewBox="148.2405 409.1884 1898.8005 1659.1594" xml:space="preserve" xmlns="http://www.w3.org/2000/svg">
<g stroke="#000" stroke-width=".0938">
	<path d="m172.87 482.27l3.337-5.0944c4.6294-5.0966 11.286-7.5386 17.727-9.4519 14.642-4.0128 29.905-5.1212 45.035-5.4796 33.998-0.4559 67.964 3.7176 101.16 10.904 30.77 6.7538 60.96 16.344 89.68 29.311 32.532 14.794 63.37 34.109 88.738 59.476 20.452 20.425 40.393 41.556 57.198 65.14 7.8492 11.286 15.365 23.19 19.143 36.531 1.991 7.1259 2.4127 15.698-3.1408 21.421 5.4376 3.2509 12.11 0.0544 15.452-4.7017 6.0482-7.9926 6.5131-18.375 6.9733-27.984 0.0184-3.897 3.3441-7.9707 7.5508-6.7095 8.368 2.409 14.42 9.2662 20.266 15.343 17.149 19.445 30.276 42.019 42.352 64.847 13.242 25.446 24.6 51.833 34.761 78.644 6.9125 18.228 12.995 36.736 19.598 55.072 8.9606 25.211 18.292 50.295 28.298 75.115 18.109 44.533 38.231 88.567 64.947 128.68 21.217 31.65 47.238 60.983 80.215 80.683 10.423 6.1338 21.455 12.177 33.675 13.487 7.0457 0.7777 14.686-0.9956 19.764-6.1929 6.5805-6.6517 8.7436-16.269 9.3665-25.304 0.6781-13.519-1.7543-27.198-6.9175-39.701-2.8905-6.5554-6.4658-13.416-12.79-17.248-3.426-2.1245-8.0005-1.5465-11 1.0433-6.3548 5.0662-8.1284 13.468-12.979 19.687-2.8424 3.8285-6.7238 7.4545-11.645 8.0685-4.9734 0.6394-9.614-2.1492-13.242-5.2429-6.6825-5.9312-11.542-13.55-15.979-21.213-9.1414-16.376-16.104-33.871-22.124-51.598 18.196-5.2592 37.355-7.5336 56.256-5.9478 17.877 1.5608 35.777 7.2125 50.038 18.383 13.098 10.062 22.569 24.275 28.479 39.598 4.7247 12.132 9.7073 24.254 12.806 36.935 0.4362 2.8199 1.5895 6.1694-0.3429 8.6813-5.4707-0.1525-9.0458-5.6263-14.197-7.1239-1.0817 4.7904 0.4887 9.6565 0.112 14.502-0.6776 32.06-6.1926 63.748-8.5046 95.694-0.7535 17.557 0.5645 35.42 5.5139 52.337-3.787-1.1537-7.7698-1.1326-11.623-1.875-20.271-3.5829-39.443-11.945-56.838-22.801-33.18-21.16-58.98-52.273-77.967-86.431-21.022-39.173-40.863-78.982-63.054-117.52-10.864-18.473-21.987-37.043-36.483-52.946-8.4242-8.9847-18.819-17.754-31.586-18.812-13.252-0.683-26.012 4.3602-37.469 10.555-16.966 9.185-32.829 21.138-51.8 25.973-14.353 3.844-29.56 2.1312-43.712-1.7592-21.483-6.0026-41.43-16.558-59.853-28.984 10.7 19.034 29.875 31.499 49.341 40.269 12.661 5.7468 25.624 11.763 39.662 12.997 13.067 1.1477 25.966-2.0466 38.547-5.1746 10.496-2.7006 21.55 0.9181 30.405 6.6348 8.7364 5.7704 16.414 13.632 20.794 23.243 2.0007 4.5741 3.2231 10.3 0.3583 14.783-3.2311 4.4585-9.1766 5.286-14.289 5.1888-9.3644-0.4316-18.669-2.0315-27.703-4.4823-12.982-3.6141-25.712-9.7292-34.837-19.89-1.205 4.3033-1.7447 8.887-0.6357 13.271 2.2433 9.5146 8.9901 17.209 16.384 23.26 14.235 11.428 31.298 18.54 48.344 24.637 20.216 7.408 40.562 14.507 60.338 23.025 10.729 4.8278 21.744 9.8558 30.326 18.107 6.4705 6.1271 9.9356 15.127 9.5305 23.995-0.145 3.6707-2.2862 7.4323-5.8792 8.6652-5.6998 2.0404-11.883 0.5123-17.512-1.0229-11.978-3.6139-23.148-9.4838-33.839-15.901-12.325-7.8104-24.577-15.752-36.305-24.438-0.9492 2.6537-1.8223 5.4648-1.167 8.2969 1.446 7.9763 6.8406 14.486 12.188 20.284 15.729 16.065 35.107 27.873 54.383 39.16 42.286 24.267 86.822 44.497 132.36 61.846 18.125 6.7676 36.423 13.362 55.474 17.054 12.082 2.8337 24.519 4.178 36.443 7.637-13.576-0.2255-26.96-3.1346-40.281-5.5006-71.995-14.499-141.71-41.218-204.19-79.905-18.423-11.386-35.906-24.189-53.383-36.928-53.618-39.544-105.7-81.993-149.49-132.46-25.286-28.995-46.888-60.969-66.822-93.81-2.7228-5.0231-6.3146-9.8145-7.2905-15.57 29.571 21.031 60.789 40.368 94.891 53.166 18.556 6.9305 38.664 10.562 58.441 8.0356 27.227-3.2051 52.482-17.816 70.204-38.52 4.8093-5.8275 6.7898-13.341 8.2119-20.622 2.8062-15.818 2.3753-32.024 0.8953-47.96-3.054-30.141-10.675-59.806-22.392-87.744-10.534-24.616-24.31-48.116-42.542-67.841-15.12-16.156-33.951-29.71-55.657-35.153-14.186-3.6737-29.258-2.2729-43.121 2.0831 6.4874-33.192-4.6041-68.418-26.397-93.858-11.5-13.761-25.799-24.8-40.434-34.997-21.256-14.58-43.941-26.942-67.191-38.022-28.99-13.669-58.945-25.389-89.743-34.325-17.269-4.8802-34.824-9.1229-52.725-10.794-16.849-1.6163-34.094 1.8629-49.083 9.6895-18.834 9.7548-34.361 25.155-45.886 42.841-3.4807-3.7383-4.3246-8.9653-4.8662-13.851-1.4682-15.809 2.9342-31.801 10.942-45.396z"/>
	<path d="m191.55 552.05c5.8114-13.599 15.866-25.59 28.997-32.589 13.978-7.6519 30.477-9.4444 46.116-7.6046 21.871 2.4909 43.152 8.6006 63.944 15.621 35.8 12.416 70.394 28.405 102.72 48.204 20.497 12.709 40.233 26.963 57.159 44.23 12.158 12.518 23.152 26.833 28.699 43.568 4.2578 12.699 4.4716 26.754 0.2119 39.48-5.272 16.152-16.426 29.694-29.067 40.744-15.536 13.517-33.611 23.829-52.385 32.105-19.16 8.2625-39.259 14.547-59.914 17.61-11.936 1.8524-24.177 2.1431-36.077-0.093-24.125-4.4336-46.309-16.227-65.773-30.842-31.657-24.143-57.062-56.277-73.866-92.328-12.427-27.147-20.505-57.1-18.183-87.162 0.8652-10.61 3.1984-21.144 7.418-30.944m44.18 21.85c-5.1289 11.225-7.1443 23.664-7.0115 35.944 0.1082 16.078 3.6403 31.983 9.0657 47.061 12.021 32.894 32.924 62.486 59.722 85.012 17.447 14.464 37.804 26.364 60.294 30.612 14.682 2.8986 29.778 0.7488 44.187-2.616 21.049-5.1243 41.379-13.385 59.78-24.834 14.159-8.9681 27.49-20.068 36.109-34.649 6.794-11.102 9.6458-24.727 6.9181-37.536-3.2564-16.108-13.375-29.824-24.522-41.477-17.321-17.741-38.053-31.751-59.517-43.97-18.209-10.253-37.16-19.153-56.634-26.708-20.049-7.6812-40.652-14.315-61.925-17.646-13.039-2.0854-26.869-1.9039-39.149 3.4655-12.206 5.1301-21.901 15.349-27.317 27.342z"/>
	<path d="m150.21 704.91c-0.7898-6.0761-1.832-12.15-1.9206-18.293 3.9235 4.65 6.6417 10.136 9.9336 15.221 20.662 33.426 44.919 65.417 76.344 89.456 18.622 14.422 40.417 23.927 62.344 32.098 31.784 11.411 65.163 18.87 98.942 20.482 18.181 36.248 39.874 70.564 59.918 105.77 21.539 37.252 44.603 73.674 70.551 108.03 27.648 36.759 58.274 71.272 91.488 103.09 27.304 26.719 60.141 46.996 93.912 64.479 50.69 25.946 104.32 45.69 158.66 62.481 31.567 9.6792 63.456 18.302 95.645 25.663 12.972 2.4243 25.063 7.929 37.558 12.013-8.6199 13.05-18.456 25.292-29.136 36.706-5.3445 5.5127-10.552 11.474-17.547 14.925-13.209 6.7332-28.277 8.5306-42.91 8.9155-7.3793 0.1514-14.77-0.1355-22.116-0.9302 8.9359-4.1885 18.896-5.5062 27.846-9.6615 9.5199-4.3319 18.88-9.5333 26.286-17.043 3.1896-3.4097 6.3981-7.9427 5.3929-12.869-1.2169-5.0408-6.053-8.0054-10.367-10.198-3.5485-1.8462-7.9751-1.8408-11.383 0.3142-6.3613 3.9263-11.215 9.7485-16.792 14.631-8.0494 7.4708-16.734 14.25-25.955 20.225-10.752 7.0516-22.252 13.422-34.959 16.048-26.424 5.8114-54.426-2.0466-76.462-17.006 15.656-0.0852 31.499-0.8016 46.69-4.8855 11.179-3.2332 22.277-7.5474 31.721-14.464 4.148-3.2482 8.6768-7.7533 8.3282-13.445-0.5719-5.5508-5.365-9.3479-9.7036-12.178-6.5024-4.2352-14.675-5.0815-22.134-3.4762-10.934 2.3658-20.804 7.9265-30.361 13.537-14.56 8.7051-28.608 18.307-43.776 25.969-9.8129 4.7975-20 9.6007-31.049 10.481-16.523 1.5735-32.933-3.7241-47.303-11.534-10.904-5.9109-20.954-13.343-30.023-21.782 9.9423 2.6154 20.134 4.1387 30.344 5.2318 14.013 1.767 28.145-0.1893 42.013-2.235 14.746-2.5104 29.506-5.7891 43.309-11.678 6.1956-2.8156 12.559-6.1067 16.775-11.63 2.3687-3.0867 3.108-7.3363 1.7165-10.997-3.3294-8.3492-11-14.378-19.461-16.955-10.836-3.3319-22.463-2.6996-33.454-0.5747-10.342 2.0836-20.41 5.6267-29.68 10.672-11.829 6.8358-24.959 11.003-38.063 14.637-32.296 8.48-66.091 11.364-99.355 8.236-35.671-3.3776-70.729-14.315-101.51-32.746-38.183-22.5-70.378-55.567-90.252-95.326-9.9924-20.077-17.492-41.642-20.239-63.967 13.093 17.936 27.239 35.14 42.932 50.858 12.09 11.984 25.066 23.436 40.239 31.39 9.0432 4.6086 19.558 8.1013 29.745 5.6528 4.2477-0.8638 8.2892-4.2415 8.3406-8.8461 0.1918-8.1587-4.4819-15.368-8.6078-22.064-11.725-17.578-26.538-32.816-41.384-47.764-34.792-34.194-72.358-65.447-110.76-95.487-11.362-9.0081-23.396-17.226-33.719-27.454-24.764-24.135-43.355-53.825-58.759-84.584-18.799-37.896-32.889-77.943-44.377-118.61-9.8805-35.688-18.007-71.901-23.463-108.54z"/>
	<path d="m315.4 606.21c4.0025-8.8663 11.654-16.131 21.002-19.07 10.613-3.5919 22.048-1.6849 32.714 0.6639 22.145 5.2289 43.354 13.969 63.459 24.556 17.074 9.1753 33.65 19.95 46.921 34.237 8.0566 8.8157 15.041 19.834 15.041 32.171 0.0682 11.832-6.7014 22.532-15.097 30.385-12.337 11.572-27.846 19.225-43.785 24.505-13.407 4.1526-27.842 7.3926-41.798 4.061-18.499-4.371-34.573-15.784-47.652-29.252-14.512-15.112-25.745-33.552-31.713-53.695-4.5512-15.7-6.0169-33.301 0.9071-48.562z"/>
	<path d="m472.45 791.03c11.225-19.82 25.348-38.242 42.917-52.855 13.666-11.263 30.053-20.386 48.014-21.782 13.295-1.1895 26.704 2.7762 37.873 9.9247 16.304 10.369 28.768 25.669 39.116 41.772 15.045 23.734 25.905 49.914 34.124 76.732 5.0661 16.958 9.1173 34.28 11.138 51.873 1.2723 11.544 1.6328 23.496-2.0044 34.67-4.2158 13.7-13.787 25.41-25.823 33.054-16.216 10.43-35.877 14.239-54.942 13.981-34.748-0.7529-68.719-13.716-96.566-34.239-18.478-13.729-34.645-31.169-44.81-51.969-7.3607-15.006-11.236-32.177-8.5198-48.843 2.9674-18.51 10.436-36.008 19.482-52.318m18.92 7.6348c-5.9635 11.933-10.881 24.587-12.721 37.871-1.9783 14.281 1.9641 28.793 8.648 41.384 10.172 19 26.201 34.388 44.294 45.857 17.939 11.212 38.295 18.772 59.357 21.092 17.511 1.8828 35.993 0.0023 51.658-8.5288 11.883-6.3701 21.572-17.238 25.232-30.345 3.8893-13.603 1.4574-27.903-0.8388-41.553-5.004-25.704-13.478-50.764-25.286-74.147-8.4503-16.318-18.663-32.117-32.613-44.291-9.9303-8.6563-22.56-14.98-35.958-14.91-15.511-0.0822-29.998 7.3436-41.853 16.828-16.889 13.647-30.029 31.518-39.919 50.742z"/>
	<path d="m522.58 789.28c7.2429-15.255 17.456-29.497 31.199-39.527 8.9529-6.5323 20.476-10.747 31.592-8.1526 11.944 2.7905 21.184 11.88 28.29 21.435 10.872 14.975 18.052 32.302 23.284 49.955 3.0967 11.114 5.7019 22.503 5.8401 34.082 0.1254 9.6456-4.0983 19.288-11.565 25.467-9.6771 8.2217-22.832 10.986-35.253 10.548-21.381-0.9028-42.101-10.04-57.965-24.257-10.473-9.5256-19.209-21.811-21.817-35.952-2.185-11.556 1.7093-23.159 6.3953-33.598z"/>
	<path d="m760.42 637.04c-1.3812-4.7899-1.9252-10.31 0.8179-14.754 4.8034-6.8953 13.075-11.913 21.698-10.915 10.902 1.2596 20.014 8.2446 27.963 15.328 15.62 14.571 28.008 32.177 39.66 49.958 21.731 33.875 40.015 69.784 58.369 105.55 36.336 71.75 70.785 144.43 104.89 217.25 22.761 49.074 45.763 98.056 67.66 147.52-18.772-38.01-36.19-76.663-54.528-114.88-34.659-72.85-69.912-145.47-108.22-216.48-17.998-32.84-36.234-65.682-57.869-96.29-6.8594-9.2748-13.798-18.721-22.725-26.134-5.029-3.82-10.983-6.8116-17.31-7.573-2.9052-0.4923-5.7596 1.8579-5.3356 4.897 0.3563 6.3181 3.545 12.017 6.4793 17.466 4.6868 8.1385 10.001 16.067 16.973 22.45 9.9399 10.54 19.09 21.829 27.837 33.368-7.7337-4.5637-14.516-10.488-21.421-16.171-16.998-14.565-33.358-30.086-47.139-47.792-5.3331-7.1154-10.517-14.623-13.26-23.174-1.4095-4.5095-1.6469-10.188 2.1693-13.641 4.0645-3.6137 9.7813-4.2564 14.997-4.4623 6.4918-0.1469 12.957 0.8602 19.316 2.1205-5.2661-9.8091-11.644-19.163-19.711-26.886-5.5195-5.1336-12.57-9.8831-20.45-9.2589-5.2376 0.2033-10.24 3.7885-11.337 9.0589-2.1635 9.2342 0.9581 18.631 3.9213 27.302-5.5864-7.2215-10.789-15.029-13.437-23.852z"/>
	<path d="m686.13 1436.1c-11.122-12.677-21.295-26.238-29.844-40.78 36.907 15.926 75.89 26.602 115.18 34.765 15.107 2.9618 30.245 6.0038 45.609 7.1855 34.931 2.8094 70.27-1.5737 103.8-11.575 11.996-3.7861 24.157-7.6429 35.273-13.535 8.295-11.04 20.342-18.426 32.66-24.237 14.384-6.776 30.772-10.04 46.581-7.3116-9.3384 7.9056-17.837 16.756-25.643 26.155-6.5103 7.7854-7.9228 18.3-8.7034 28.07-1.2789 21.864 2.1625 43.675 6.4711 65.038 7.4512 35.747 18.839 70.521 31.4 104.76 6.4071 18.47 11.761 37.434 13.985 56.906 1.427 13.499 1.5099 27.48-2.6722 40.544-2.8638 9.0624-8.3652 17.772-16.968 22.31 3.0841-17.118 3.5336-35.234-2.3506-51.819-2.9456-8.5521-8.518-15.776-13.895-22.897-7.5795-9.8182-15.702-19.263-24.782-27.721-6.4016-5.8308-13.234-11.478-21.299-14.824-4.9705-2.0842-11.09-2.8889-15.83 0.1866-5.6002 3.7314-8.014 10.482-9.5247 16.749-2.8377 13.311-3.1329 27.176-0.9689 40.608 2.8661 17.908 11.235 34.46 21.779 49.041 19.029 26.32 44.179 48.388 58.423 78.016 6.8882 13.848 10.54 29.115 11.766 44.49 1.7817 19.636 0.4183 39.64-4.9303 58.646-5.123 17.768-13.471 34.929-26.11 48.586 3.7118-11.196 6.089-22.801 7.5446-34.495 1.8102-16.196 2.6821-32.839-1.2526-48.805-1.5349-5.5958-3.3243-11.478-7.45-15.746-2.1583-2.4537-5.9772-3.1023-8.7817-1.4486-4.8587 2.8185-7.855 7.8491-10.548 12.6-5.3133 10.028-9.1787 20.765-12.414 31.617-5.8739 22.308-2.3132 45.836 3.9461 67.652 10.18 33.972 27.27 65.405 46.236 95.198 3.7466 6.0881 8.0313 11.847 11.375 18.186l-3.1538-2.0657c-16.204-13.734-30.7-29.362-44.51-45.473-9.3956-11.462-19.304-22.853-25.425-36.486-7.6292-16.641-12.052-34.6-14.492-52.683-4.3388-34.33-1.9273-70.442 12.573-102.23 6.5457-13.68 11.161-28.756 10.18-44.066-0.9156-15.794-7.7535-30.613-16.697-43.441-11.637-16.636-26.052-31.075-40.611-45.13-20.543-19.684-41.735-38.706-64.187-56.186-15.965-12.382-32.409-24.253-50.049-34.134 11.138-1.4188 22.306-2.6632 33.447-4.1042 13.49-2.4725 25.066-10.873 34.82-20.144 4.5405-4.7604 9.7576-9.5676 11.435-16.18-4.5393-0.2239-8.5504 2.1217-12.847 3.0968-14.454 3.6342-29.544 3.1462-44.278 1.9705-17.123-1.2701-33.413-7.792-48.225-16.204-16.04-9.2391-30.774-20.672-43.954-33.656 9.2544-0.1306 18.503 0.4047 27.748 0.7819 10.168 0.3724 20.339 1.452 30.513 0.74 12.943-0.8344 25.769-3.443 38.013-7.7358 6.3522-2.3065 12.865-4.6392 18.27-8.8212-28.098 0.1722-55.391-7.819-81.779-16.7-29.656-9.6944-54.449-30.19-74.852-53.262z"/>
	<path d="m1328.8 693.71c13.123-23.119 26.959-45.938 43.489-66.813 7.4003-9.199 15.333-18.097 24.676-25.39 6.1691-4.7097 13.196-8.9409 21.084-9.7399 6.6893-0.7587 13.304 2.283 17.867 7.0887 3.9727 3.5347 4.6935 9.3145 3.5797 14.263-2.3285 10.417-8.3397 19.558-14.684 27.966 2.9102-7.8007 5.589-16.052 4.9938-24.487-0.2783-4.5574-2.651-9.4947-7.3438-10.835-7.2839-2.4761-14.848 1.2603-20.484 5.7216-10.561 8.6588-18.141 20.322-24.679 32.166 8.4169-2.1733 17.15-4.0442 25.88-3.0833 4.1033 0.4882 8.6815 2.0765 10.556 6.0774 1.9231 4.2363 0.6141 9.0452-0.9 13.182-3.5804 8.9156-9.1937 16.846-14.959 24.462-13.814 17.658-29.769 33.53-46.397 48.531-6.5869 5.8586-13.278 11.602-20.447 16.744 6.2235-9.647 13.83-18.34 21.033-27.274 5.1718-6.6182 11.746-12.019 16.429-19.041 5.1263-7.4249 9.9506-15.191 13.082-23.695 0.8972-2.903 2.0276-6.1433 0.8966-9.1435-1.1862-2.2592-4.0527-2.1168-6.1681-1.6614-8.5389 2.1772-15.996 7.4659-21.801 13.992-13.839 15.214-24.761 32.746-35.675 50.103-26.271 43.173-49.747 87.974-72.741 132.97-44.55 87.505-86.056 176.51-127.83 265.36-2.1561 4.6605-4.3927 9.3162-7.3987 13.504 9.6222-19.088 17.838-38.858 26.984-58.187 41.183-89.555 82.906-178.88 126.27-267.4 20.826-42.161 41.742-84.312 64.682-125.37z"/>
	<path d="m1080.2 1164.2c2.521-5.1626 6.3584-10.109 11.776-12.43 4.4221-1.933 9.7621-1.1609 13.621 1.6896 5.4775 4.066 9.2333 10.268 10.776 16.873 0.8826 3.8176-1.2596 7.8179-4.71 9.5266-5.993 3.1633-13.035 3.5477-19.665 3.0662-4.6637-0.5085-9.9564-1.6084-12.874-5.623-2.6209-4.0838-0.6589-9.0866 1.0753-13.103z"/>
	<path d="m1078.7 1206.4c1.9968-6.1874 5.6622-12.166 11.373-15.538 4.5706-2.7802 10.601-2.9899 15.305-0.3516 6.5862 3.6328 10.424 10.749 12.171 17.847 2.8547 12.067 1.0289 24.618-1.7815 36.501-3.3459 13.576-7.926 26.81-12.701 39.94 5.1268 6.3348 7.4108 14.346 9.4595 22.095 3.873 15.878 5.1956 32.237 5.788 48.524 1.178 38.224-2.4983 76.377-6.842 114.31-2.7847 23.268-5.8165 46.494-9.0789 69.688-1.7042 11.125-3.0498 22.377-6.1931 33.217-2.9535-9.5255-4.1132-19.49-5.6074-29.327-4.6859-34.712-9.1642-69.468-12.357-104.36-3.1677-36.647-5.182-73.686-0.739-110.31 1.3357-10.087 3.2345-20.14 6.4484-29.81 1.8669-5.4236 4.2614-10.813 8.2821-15.017-5.7994-16.076-11.885-32.208-14.704-49.129-1.4462-9.3629-1.7337-19.162 1.1767-28.278z"/>
	<path d="m1188.4 1062.3c7.3723-17.442 19.494-33.064 35.45-43.425 13.866-9.1239 30.106-14.17 46.527-16.062 17.297-1.9875 34.908-0.8044 51.88 3.0325-6.5356 19.03-14.113 37.808-24.117 55.307-5.0902 8.4646-10.578 17.171-18.78 22.94-4.1392 2.979-9.9506 4.2411-14.538 1.5352-7.0662-3.995-10.087-11.903-13.855-18.615-2.6212-4.4664-7.2809-9.252-12.937-7.9358-6.791 1.8995-10.79 8.4971-13.993 14.3-6.693 13.32-10.088 28.322-9.9147 43.224 0.2 8.9293 1.8307 18.485 7.8035 25.481 4.2401 5.0607 11.113 7.124 17.544 6.6504 8.6046-0.5802 16.734-4.0299 24.256-8.0682 27.365-15.022 50.699-36.556 70.363-60.627 27.693-34.029 48.913-72.776 67.494-112.37 19.195-41.149 35.54-83.568 51.04-126.23 9.0059-24.644 17.235-49.582 27.101-73.914 16.328-40.35 34.886-80.124 59.503-116.16 7.236-10.299 14.95-20.452 24.446-28.816 3.4525-2.8071 7.2137-5.8663 11.805-6.3973 2.9342-0.3732 5.1779 2.3156 5.5657 5.0084 0.7268 4.4568 0.2617 9.0176 1.0245 13.474 0.9984 6.8344 3.1246 14.228 8.9014 18.586 3.4673 2.7733 8.6167 3.3251 12.306 0.613-6.3413-6.2696-4.4978-15.964-2.1241-23.567 6.353-18.277 17.773-34.215 29.34-49.519 14.81-19.252 31.178-37.233 47.975-54.754 14.689-15.363 31.235-28.888 48.82-40.824 47.762-32.037 102.33-53.004 158.29-65.542 30.315-6.5862 61.312-11.004 92.41-10.335 13.204 0.5919 26.965 1.3929 38.982 7.4473l2.2502 1.4739c2.9325 2.4947 4.907 5.868 6.8417 9.1556 6.8621 11.99 10.312 25.977 9.5365 39.79-0.431 6.0056-1.3145 12.336-5.158 17.219-10.17-14.97-23.263-28.196-39.216-36.948-14.486-8.0897-31.327-11.925-47.884-10.648-10.619 0.8627-21.031 3.2714-31.321 5.9148-30.908 8.3495-60.696 20.409-89.65 33.971-30.025 14.283-59.244 30.421-86.61 49.351-14.477 10.111-28.517 20.961-41.033 33.444-15.926 16.047-28.62 35.645-34.958 57.458-4.6877 16.044-6.2599 33.209-3.1334 49.698-10.219-2.4855-20.888-3.4612-31.336-2.0563-13.63 1.9743-26.475 7.7144-37.986 15.141-18.013 11.751-32.814 27.83-45.153 45.318-12.297 17.587-22.418 36.671-30.436 56.559-12.613 31.666-20.744 65.286-22.576 99.364-0.5441 14.646-0.4052 29.728 4.4291 43.737 2.4155 7.4996 8.5851 12.772 14.213 17.905 18.036 15.938 41.839 25.242 65.945 25.324 19.051 0.2256 37.75-5.0156 55.07-12.642 33.688-15.004 64.479-35.767 93.617-58.186-0.3627 2.4881-1.217 4.8691-2.4363 7.0591-5.8792 11.056-12.586 21.642-19.315 32.189-12.518 20.096-25.978 39.623-40.499 58.324-41.876 53.728-92.547 99.806-145.23 142.66-28.742 22.966-57.452 46.155-88.646 65.782-34.699 22.04-71.554 40.636-109.71 55.929-33.041 13.121-67.02 24.097-101.83 31.468-6.1974 1.2124-12.379 2.6743-18.704 2.9308 5.1771-2.1914 10.73-3.2045 16.149-4.6158 12.871-3.2246 25.758-6.4744 38.373-10.62 32.176-11.619 63.178-26.243 93.752-41.529 33.48-17.077 66.342-35.527 97.314-56.877 15.001-10.747 30.134-22.042 41.184-37.051 4.1863-6.0443 8.5895-14.062 5.0238-21.431-5.0874 4.0074-10.212 7.9432-15.454 11.73-16.261 11.739-32.624 23.746-51.284 31.427-5.7454 2.2378-11.772 4.4111-18.03 4.1846-3.4122-0.0833-7.0983-1.7924-8.3265-5.1552-1.8264-4.95-0.5142-10.402 0.8994-15.298 3.4904-10.804 12.833-18.168 22.114-23.96 15.172-9.2369 31.571-16.188 47.811-23.314 14.322-6.2791 28.875-12.036 43.121-18.508 15.701-7.5273 31.423-16.308 42.95-29.654 6.8256-7.9019 11.786-19.034 8.1873-29.472-10.682 12.584-26.261 19.761-41.874 24.142-7.5282 1.9666-15.16 3.7452-22.94 4.1965-4.686 0.1823-10.388-0.8033-12.771-5.3409-2.1879-4.3978-0.7123-9.516 1.0559-13.785 4.5972-10.103 12.456-18.487 21.469-24.837 7.4607-5.1666 16.294-9.0159 25.515-8.8217 5.3136 0.2649 10.443 1.796 15.702 2.491 11.401 1.8492 23.257 2.4548 34.515-0.607 13.614-3.6467 26.059-10.51 38.479-17.006 17.617-9.6674 34.393-22.576 44.26-40.451-12.455 9.3427-25.78 17.566-39.784 24.364-14.124 6.7794-29.126 12.326-44.809 13.84-14.022 1.5144-28.075-2.1437-40.685-8.0963-18.001-8.2165-34.574-20.71-54.588-23.646-7.6505-1.15-15.744-0.8209-22.785 2.6838-10.458 4.9607-18.612 13.558-25.946 22.31-13.278 16.347-24.047 34.54-34.514 52.764-14.544 25.726-28.166 51.961-41.841 78.15-11.255 21.198-21.468 43.032-34.738 63.09-11.828 18.002-25.534 34.821-41.336 49.492-23.243 21.559-51.227 38.841-82.258 46.32-3.7028 1.0175-7.6808 0.9221-11.176 2.5896 4.6355-15.636 6.3856-32.051 6.287-48.325-0.3569-14.256-2.1746-28.417-3.4214-42.611-1.8088-19.905-4.1865-39.836-3.8884-59.856-0.0985-3.9376 1.4139-7.9438 0.0709-11.788-4.9534 2.4337-8.7799 6.6694-13.984 8.5923-0.6411-1.4122-1.3879-2.8817-1.1069-4.4788 0.4618-4.9574 2.0707-9.7134 3.5635-14.438 3.5897-10.81 7.7418-21.419 12.103-31.928z"/>
	<path d="m1547.9 749.69c10.494-18.302 22.94-35.935 39.423-49.346 11.633-9.4746 25.983-16.381 41.205-16.715 17.297-0.6006 33.93 6.6367 47.688 16.676 18.055 13.225 32.455 30.918 43.796 50.086 8.6614 14.974 15.776 31.05 19.228 48.063 3.0269 13.794 1.6578 28.294-2.8634 41.602-7.3615 21.86-21.486 40.868-38.004 56.706-23.362 22.162-52.232 38.624-83.399 46.84-19.587 5.1013-40.442 6.8624-60.296 2.225-17.001-3.9394-33.453-13.735-41.992-29.37-6.7778-11.863-8.0043-25.96-6.5981-39.312 2.1018-21.623 7.4913-42.791 14.091-63.452 7.2429-22.117 16.254-43.722 27.722-64.003m5.2655 10.43c-11.723 22.697-20.368 46.956-26.119 71.831-2.5524 11.908-4.806 24.036-4.4822 36.262 0.3553 10.298 4.0276 20.57 10.867 28.361 7.9073 9.2081 19.368 14.671 31.098 17.13 15.875 3.2855 32.41 1.7314 47.986-2.3749 31.837-8.6372 60.94-27.481 81.48-53.345 11.043-14.213 19.764-31.141 20.856-49.398 0.6687-11.241-2.3279-22.325-6.1902-32.781-5.8971-15.434-14.423-29.83-24.878-42.595-12.366-14.83-28.045-28.232-47.174-32.956-14.106-3.6328-29.413-0.2469-41.326 7.9208-18.796 12.708-31.621 32.233-42.118 51.944z"/>
	<path d="m1182.9 1319.9c9.9027-3.9856 19.686-8.3002 29.694-12.026 44.577-12.629 88.535-27.469 131.7-44.311 35.492-13.906 70.476-29.209 104.34-46.749 33.336-17.386 65.827-36.784 95.121-60.464 11.987-9.6134 23.036-20.295 33.675-31.354 53.472-54.716 99.878-116.16 139.13-181.78 15.106-24.832 29.036-50.351 43.811-75.389 12.738-22.056 25.467-44.154 36.856-66.962 10.88-1.0978 21.671-2.9714 32.361-5.2937 32.416-7.1107 63.915-18.444 93.371-33.757 11.668-5.9496 22.889-12.825 33.158-20.982 30.549-23.862 54.482-55.034 75.134-87.567 5.3611-8.2395 9.894-17.021 15.69-24.976-1.1478 17.502-4.9718 34.71-8.2104 51.919-13.115 63.147-31.306 125.54-58.174 184.28-16.419 35.269-36.156 69.525-62.797 98.134-13.205 14.41-29.18 25.787-43.929 38.504-34.975 29.415-69.171 59.83-101.24 92.416-14.779 15.172-29.253 30.736-41.754 47.867-5.0042 7.1105-9.973 14.459-12.74 22.772-1.1298 3.6591-1.8601 7.9862 0.3007 11.422 2.4346 3.3639 6.8438 4.2795 10.766 4.3865 8.9138 0.2799 17.436-3.2228 25.118-7.4316 14.442-8.1965 26.84-19.478 38.455-31.224 17.129-17.518 32.411-36.76 46.7-56.641-4.5707 31.506-17.272 61.428-34.185 88.233l-1.6548 2.5262c-37.551 56.178-97.252 97.334-163.43 111.49-34.878 7.5302-71.21 8.1548-106.39 2.241-16.26-2.9164-32.628-6.7277-47.379-14.394-10.466-4.9187-21.836-7.8358-33.338-8.8549-12.29-1.0209-25.413 0.1976-36.05 6.9294-5.6364 3.6958-10.422 9.0848-12.541 15.551-1.39 4.3853 0.6865 9.0807 3.9806 12.027 5.7791 5.3395 13.376 8.0321 20.739 10.405 12.74 3.838 25.967 5.8553 39.193 7.1432 13.114 1.0587 26.451 1.9407 39.489-0.481 10.337-1.7645 20.634-3.9255 30.643-7.0881-14.656 14.273-31.734 26.565-51.103 33.542-13.405 4.7877-28.389 6.2932-42.088 1.8029-21.795-6.8765-40.962-19.682-60.977-30.354-9.7037-5.0052-19.884-9.9402-30.933-10.83-7.444-0.6443-15.053 1.6279-20.915 6.252-3.8341 2.9517-7.8141 6.7283-8.3082 11.808-0.3424 4.6292 2.8654 8.5833 6.2686 11.326 6.9034 5.4662 15.262 8.6935 23.571 11.375 18.228 5.8433 37.667 5.7134 56.577 4.6031-21.391 15.575-48.317 25.493-75.008 21.984-16.819-2.0632-31.779-10.798-45.66-19.974-9.8293-6.4744-18.445-14.509-27.228-22.27-3.9474-3.4822-9.3234-6.9915-14.748-4.8784-5.203 2.1029-10.487 5.5157-12.762 10.851-1.7838 4.7489 1.1019 9.6875 4.3298 13.045 7.2148 7.2721 16.575 11.981 25.994 15.76 9.1061 3.8009 19.122 4.5157 28.29 8.1302-8.8259 1.6664-17.804 2.3243-26.767 2.5024-15.76-0.0303-32.892-1.342-45.869-11.241-14.58-12.909-27.242-27.945-38.285-43.953z"/>
	<path d="m1150.4 1377.1c17.027-4.1487 35.202-1.0537 50.916 6.3104 10.48 4.9158 21.134 10.915 27.917 20.617 32.578 12.935 67.771 18.977 102.77 18.926 20.158-0.0775 40.294-2.4762 59.896-7.1616 34.602-8.0938 68.688-18.449 101.75-31.481 12.137-4.8412 24.158-9.9617 35.842-15.828-11.11 18.95-24.43 36.585-39.354 52.69-15.267 16.299-32.56 31.02-52.44 41.405-12.377 6.2854-25.529 10.869-38.574 15.545-17.689 5.9263-35.868 11.269-54.607 12.228-1.0029 0.144-1.9749 0.3323-2.9299 0.5674 6.2521 4.1431 13.555 6.2611 20.719 8.2638 15.774 4.1517 32.3 5.6764 48.548 3.9581 14.984-1.5776 29.948-3.5988 45.005-4.3755-12.595 12.969-26.524 24.67-41.656 34.578-15.548 10.066-32.718 18.377-51.233 20.929-15.224 2.126-30.924 3.665-46.102 0.3571-3.6111-0.6558-7.1333-2.6879-10.87-1.7285 1.2404 5.881 6.0226 10.042 9.9922 14.22 9.8429 9.173 21.752 17.308 35.393 19.059 11.25 0.7826 22.527 1.3429 33.794 2.1002-15.023 9.1194-29.02 19.795-42.724 30.77-20.008 16.182-39.102 33.489-57.523 51.464-16.884 16.615-33.854 33.269-48.547 51.905-11.274 14.456-21.396 30.694-24.445 49.055-2.75 15.915 0.814 32.32 7.5132 46.821 14.999 31.032 17.282 66.692 13.188 100.48-2.6881 20.474-7.7125 40.829-16.661 59.509-5.0542 10.855-12.566 20.28-19.84 29.705-13.247 16.774-27.506 32.777-42.776 47.747-3.3693 3.1726-6.6511 6.4858-10.575 8.9724 4.5863-8.3525 10.087-16.166 15.019-24.316 14.905-24.307 28.477-49.57 38.528-76.303 8.223-22.336 14.47-46.109 12.634-70.097-0.939-11.816-4.9133-23.086-9.2927-34.012-2.8932-6.8801-6.0311-13.861-11.069-19.456-2.4688-2.7646-6.4214-5.1984-10.144-3.5483-4.7354 2.3015-6.9563 7.5172-8.7966 12.134-4.3354 12.258-5.4019 25.439-4.9836 38.36 0.5305 17.203 2.9806 34.432 8.2448 50.851-10.967-11.344-18.513-25.611-23.499-40.484-5.3903-16.226-7.4602-33.433-7.0936-50.491 0.5443-17.348 2.8762-34.887 9.4794-51.064 9.0864-22.906 24.783-42.271 40.371-61.049 14.829-17.913 30.07-36.142 38.988-57.879 7.7026-18.421 9.7023-38.976 6.6222-58.638-1.2069-6.5526-2.9199-13.592-7.967-18.297-3.868-3.6215-9.6772-3.7686-14.426-2.0852-8.3141 2.8743-15.243 8.5802-21.681 14.393-14.069 13.211-26.183 28.42-36.9 44.435-11.687 18.883-12.47 42.398-8.7028 63.73-9.3518-4.3564-14.838-13.939-17.432-23.54-3.4648-13.088-2.9691-26.858-1.2214-40.166 2.6985-19.523 8.3247-38.515 14.923-57.038 14.443-38.931 27.493-78.582 35.166-119.46 3.2404-18.379 5.8149-37.111 4.1964-55.792-0.8812-8.1084-2.3743-16.761-7.9008-23.107-7.7386-8.9544-16.117-17.407-25.451-24.692z"/>
	<path d="m1575.3 741.03c5.9768-9.6174 13.063-18.866 22.443-25.394 6.299-4.4334 13.985-7.1334 21.749-6.686 10.336 0.5181 19.806 5.7889 27.537 12.383 10.346 8.9524 18.402 20.398 24.199 32.754 4.5673 10.164 8.2065 21.49 6.0039 32.718-3.0658 16.306-13.626 30.201-25.862 40.943-14.121 12.196-31.452 20.916-49.913 24.005-11.307 1.7864-23.412 1.3409-33.833-3.8112-7.5294-3.6527-13.708-10.318-16.039-18.42-2.272-7.2261-1.369-14.919-0.3081-22.269 3.9719-23.256 12.096-45.86 24.023-66.223z"/>
	<path d="m1679.5 619.61c9.4271-20.232 24.802-36.951 41.139-51.856 28.012-25.081 60.005-45.344 93.168-62.903 24.548-12.838 49.906-24.213 76.132-33.19 15.432-5.1814 31.176-9.7994 47.383-11.784 15.309-1.8548 31.585 0.307 44.825 8.6203 12.46 7.6956 21.148 20.439 25.664 34.204 5.7388 17.447 5.9077 36.242 3.2887 54.275-4.3213 28.753-15.471 56.141-30.012 81.188-17.426 29.505-40.065 56.074-67.153 77.134-13.597 10.484-28.373 19.573-44.339 25.971-13.428 5.3704-27.812 8.7876-42.336 8.5863-18.929-0.1931-37.658-3.9022-55.755-9.2527-20.945-6.3676-41.27-15.306-59.262-27.88-15.317-10.798-29.305-24.85-35.918-42.713-6.2366-16.303-4.1819-34.825 3.175-50.4m14.469 5.6878c-5.2759 12.252-6.4137 26.546-1.5607 39.12 5.8711 15.656 18.546 27.641 32.183 36.753 18.666 12.238 39.898 20.229 61.651 24.962 15.024 3.0151 30.672 4.9684 45.863 1.9247 17.745-3.5109 34.101-12.056 48.778-22.418 30.577-22.062 54.899-52.478 70.754-86.61 10.616-23.47 17.936-49.41 15.29-75.374-1.6256-16.115-8.3107-32.628-21.772-42.39-13-9.5911-30.201-10.924-45.643-7.9369-25.777 4.8603-50.296 14.753-74.058 25.607-33.032 15.625-64.89 34.314-92.758 58.079-15.524 13.644-30.438 29.039-38.727 48.283z"/>
	<path d="m1702.9 629.94c6.3221-16.624 19.856-29.109 33.433-40 16.741-13.038 35.24-23.706 54.399-32.77 14.297-6.6422 29.046-12.498 44.408-16.147 8.3912-1.9153 17.322-2.975 25.71-0.4332 8.8451 2.4108 16.161 9.1273 19.95 17.395 5.2112 11.243 5.3269 24.134 3.3247 36.152-3.3733 19.093-11.856 37.026-22.939 52.815-10.138 14.327-22.671 27.074-37.388 36.693-10.087 6.5304-21.401 11.648-33.456 12.897-13.183 1.0359-26.372-1.7333-38.885-5.698-12.117-3.9318-23.765-9.6369-33.728-17.622-7.2876-5.9929-13.646-13.732-15.996-23.03-1.7567-6.6618-1.1352-13.798 1.1673-20.251z"/>
</g>
</svg>
